<svg xmlns="http://www.w3.org/2000/svg" viewBox="0 0 80.2 224.5"><defs><style>.cls-1{opacity:0.7;}.cls-2{fill:#f69668;}</style></defs><title>Dots2</title><g id="Layer_2" data-name="Layer 2"><g id="Layer_8" data-name="Layer 8" class="cls-1"><circle class="cls-2" cx="75.4" cy="4.8" r="4.8"/><circle class="cls-2" cx="75.4" cy="46.5" r="4.8"/><circle class="cls-2" cx="75.4" cy="88.2" r="4.8"/><circle class="cls-2" cx="51.4" cy="26.6" r="4.8"/><circle class="cls-2" cx="51.4" cy="68.2" r="4.8"/><circle class="cls-2" cx="51.4" cy="109.9" r="4.8"/><circle class="cls-2" cx="75.4" cy="134.3" r="4.8"/><circle class="cls-2" cx="75.4" cy="176" r="4.8"/><circle class="cls-2" cx="75.4" cy="217.6" r="4.8"/><circle class="cls-2" cx="51.4" cy="156.1" r="4.8"/><circle class="cls-2" cx="51.4" cy="197.7" r="4.8"/><circle class="cls-2" cx="28.8" cy="6.9" r="4.8"/><circle class="cls-2" cx="28.8" cy="48.5" r="4.8"/><circle class="cls-2" cx="28.8" cy="90.2" r="4.8"/><circle class="cls-2" cx="4.8" cy="28.6" r="4.8"/><circle class="cls-2" cx="4.8" cy="70.3" r="4.8"/><circle class="cls-2" cx="4.8" cy="111.9" r="4.8"/><circle class="cls-2" cx="28.8" cy="136.3" r="4.8"/><circle class="cls-2" cx="28.8" cy="178" r="4.8"/><circle class="cls-2" cx="28.8" cy="219.7" r="4.8"/><circle class="cls-2" cx="4.8" cy="158.1" r="4.8"/><circle class="cls-2" cx="4.8" cy="199.7" r="4.8"/></g></g></svg>